<?xml version="1.0" standalone="no"?>
<!DOCTYPE svg PUBLIC "-//W3C//DTD SVG 1.1//EN" "http://www.w3.org/Graphics/SVG/1.1/DTD/svg11.dtd" >
<svg xmlns="http://www.w3.org/2000/svg">
<metadata>Generated by IcoMoon</metadata>
<defs>
<font id="icomoon" horiz-adv-x="1024">
<font-face units-per-em="1024" ascent="960" descent="-64" />
<missing-glyph horiz-adv-x="1024" />
<glyph unicode="&#x20;" d="" horiz-adv-x="512" />
<glyph unicode="&#xe600;" d="M959.998 832h-895.998c-35.342 0-64-28.624-64-64v-640c0-35.376 28.658-64 64-64h895.998c35.344 0 64.002 28.624 64.002 64v640c0 35.376-28.658 64-64.002 64zM832 704l-320-256-320 256h640zM896 192h-768v448l384-320 384 320v-448z" />
<glyph unicode="&#xe601;" d="M35.117 715.432c27.685-14.921 411.245-220.912 425.541-228.571 14.239-7.659 32.734-11.346 51.342-11.346 18.665 0 37.159 3.687 51.398 11.403 14.296 7.659 397.799 213.649 425.485 228.571 27.742 14.863 53.952 61.554 3.064 61.554h-959.837c-50.887 0-24.735-46.691 3.007-61.609zM1000.627 601.969c-31.486-16.452-417.939-218.472-437.227-228.571s-32.734-11.403-51.398-11.403c-18.608 0-32.054 1.305-51.342 11.403s-405.799 212.175-437.227 228.571c-22.182 11.574-22.013-1.985-22.013-12.424s0-416.124 0-416.124c0-23.827 31.713-54.462 56.277-54.462h908.665c24.622 0 56.22 30.635 56.22 54.405 0 0 0 405.685 0 416.124 0 10.496 0.227 24.055-21.955 12.481z" />
<glyph unicode="&#xe602;" d="M1024-64h-1024v896h128v-768h768v768h128zM192 576h128v-128h-128zM448 576h128v-128h-128zM704 576h128v-128h-128zM192 320h128v-128h-128zM448 320h128v-128h-128zM704 192v128h128zM256 768v128c0 35.36 28.64 64 64 64s64-28.64 64-64v-128c0-35.36-28.64-64-64-64s-64 28.64-64 64zM640 768v128c0 35.36 28.64 64 64 64s64-28.64 64-64v-128c0-35.36-28.64-64-64-64s-64 28.64-64 64z" />
<glyph unicode="&#xe603;" d="M1075.164 345.202l-563.164 437.141-563.164-437.143v178.231l563.164 437.141 563.164-437.143zM934.373 361.088v-422.373h-281.581v281.581h-281.581v-281.581h-281.581v422.373l422.373 316.779z" />
<glyph unicode="&#xe604;" d="M0-64h512v1024h-512v-1024zM320 832h128v-128h-128v128zM320 576h128v-128h-128v128zM320 320h128v-128h-128v128zM64 832h128v-128h-128v128zM64 576h128v-128h-128v128zM64 320h128v-128h-128v128zM576 640h448v-64h-448zM576-64h128v256h192v-256h128v576h-448z" />
<glyph unicode="&#xe605;" d="M992 896h-224c-52.8 0-126.546-30.546-163.882-67.882l-376.236-376.236c-37.334-37.334-37.334-98.428 0-135.764l280.236-280.234c37.334-37.336 98.428-37.336 135.764 0l376.234 376.234c37.338 37.336 67.884 111.082 67.884 163.882v224c0 52.8-43.2 96-96 96zM864 576c-53.020 0-96 42.98-96 96s42.98 96 96 96 96-42.98 96-96-42.98-96-96-96zM86.626 361.374l342.378-342.378c-36.264-19.16-82.462-13.538-112.886 16.888l-280.236 280.234c-37.334 37.336-37.334 98.43 0 135.764l376.236 376.236c37.336 37.336 111.082 67.882 163.882 67.882l-489.374-489.372c-12.444-12.446-12.444-32.808 0-45.254z" horiz-adv-x="1088" />
<glyph unicode="&#xe606;" d="M512 959.467c-282.474 0-511.467-228.992-511.467-511.467 0-282.477 228.992-511.467 511.467-511.467 282.477 0 511.467 228.99 511.467 511.467 0 282.474-228.99 511.467-511.467 511.467zM512 38.826c-225.981 0-409.174 183.193-409.174 409.174s183.193 409.174 409.174 409.174c225.981 0 409.174-183.193 409.174-409.174s-183.193-409.174-409.174-409.174zM546.098 482.098v136.391h136.391v68.196h-136.391v68.196h-68.196v-68.196h-136.391v-272.782h136.391v-136.391h-136.391v-68.196h136.391v-68.196h68.196v68.196h136.393l-0.002 272.782h-136.391zM477.902 482.098h-68.196v136.391h68.196v-136.391zM614.296 277.511h-68.198v136.391h68.198v-136.391z" />
<glyph unicode="&#xe607;" d="M932.438 688.25c33.171 0 60.063 26.892 60.063 60.063v120.125h-120.125v60.063h-780.813c-33.034 0-60.063-27.026-60.063-60.063v-840.875c0-33.034 27.024-60.063 60.063-60.063h780.813v240.25h60.063c33.171 0 60.063 26.892 60.063 60.063v120.125h-120.125v60.063h60.063c33.171 0 60.063 26.892 60.063 60.063v120.125h-120.125v60.063h60.063zM572.063 687.94c66.172 0 119.815-53.644 119.815-119.815s-53.644-119.815-119.815-119.815c-66.172 0-119.815 53.644-119.815 119.815s53.644 119.815 119.815 119.815zM271.75 27.562h-60.063v840.875h60.063v-840.875zM752.25 207.75h-360.375v60.063c0 66.345 53.782 120.125 120.125 120.125v0h120.125c66.347 0 120.125-53.78 120.125-120.125v-60.063z" />
<glyph unicode="&#xe608;" d="M384 320l128 64 448 448-64 64-448-448-64-128zM289.3 92.902c-31.632 66.728-65.666 100.762-132.396 132.394l99.096 272.792 128 77.912 384 384h-192l-384-384-192-640 640 192 384 384v192l-384-384-77.912-128z" />
<glyph unicode="&#xe609;" d="M512 384l256 256h-192v256h-128v-256h-192zM744.726 488.728l-71.74-71.742 260.080-96.986-421.066-157.018-421.066 157.018 260.080 96.986-71.742 71.742-279.272-104.728v-256l512-192 512 192v256z" />
<glyph unicode="&#xe60a;" d="M448 384h128v256h192l-256 256-256-256h192zM640 528v-98.712l293.066-109.288-421.066-157.018-421.066 157.018 293.066 109.288v98.712l-384-144v-256l512-192 512 192v256z" />
<glyph unicode="&#xe60b;" d="M472.897 412.576c0 0 1.588 503.645 0.387 503.645-262.449 0-464.58-228.767-464.58-496.017s216.689-476.659 483.937-476.659c267.211 0 483.937 199.732 483.937 466.98 0 2.246-503.683 2.051-503.683 2.051zM1015.294 451.639c0 267.29-238.446 500.895-505.695 500.895 3.717 0 0-500.895 0-500.895s505.695-1.471 505.695 0z" />
<glyph unicode="&#xe60c;" d="M842 928c-82.849 0-150-67.155-150-150v-450h120v-360h180v810c0 82.845-67.157 150-150 150zM422 928c-16.571 0-30-13.433-30-30v-210c0-8.284-13.433-15-30-15-16.571 0-30 6.716-30 15v210c0 16.567-13.433 30-30 30-16.569 0-30-13.433-30-30v-210c0-8.284-13.433-15-30-15-16.569 0-30 6.716-30 15v210c0 16.567-13.433 30-30 30-16.569 0-30-13.433-30-30v-210c0-8.284-13.433-15-30-15s-30 6.716-30 15v210c0 16.567-13.433 30-30 30s-30-13.433-30-30v-270c0-26.548 23.492-41.353 49.691-60 33.009-23.498 70.309-53.096 70.309-120v-480h180v480c0 66.904 37.299 96.503 70.305 120 26.199 18.647 49.695 33.452 49.695 60v270c0 16.567-13.431 30-30 30z" />
<glyph unicode="&#xe60d;" d="M192-64h640l64 704h-768zM640 832v128h-256v-128h-320v-192l64 64h768l64-64v192h-320zM576 832h-128v64h128v-64z" />
<glyph unicode="&#xe60e;" d="M928 864h-832c-52.8 0-96-43.2-96-96v-640c0-52.8 43.2-96 96-96h832c52.8 0 96 43.2 96 96v640c0 52.8-43.2 96-96 96zM398.74 441.628l-270.74-210.892v501.642l270.74-290.75zM176.38 736h671.24l-335.62-252-335.62 252zM409.288 430.302l102.712-110.302 102.71 110.302 210.554-270.302h-626.528l210.552 270.302zM625.26 441.628l270.74 290.75v-501.642l-270.74 210.892z" />
<glyph unicode="&#xe60f;" d="M791.498 415.908c-1.294 129.682 105.758 191.876 110.542 194.966-60.152 88.020-153.85 100.078-187.242 101.472-79.742 8.074-155.596-46.948-196.066-46.948-40.368 0-102.818 45.754-168.952 44.552-86.916-1.292-167.058-50.538-211.812-128.38-90.304-156.698-23.126-388.84 64.89-515.926 43.008-62.204 94.292-132.076 161.626-129.58 64.842 2.588 89.362 41.958 167.756 41.958s100.428-41.958 169.050-40.67c69.774 1.296 113.982 63.398 156.692 125.796 49.39 72.168 69.726 142.038 70.924 145.626-1.548 0.706-136.060 52.236-137.408 207.134zM662.562 796.478c35.738 43.358 59.86 103.512 53.28 163.522-51.478-2.096-113.878-34.29-150.81-77.55-33.142-38.376-62.148-99.626-54.374-158.436 57.466-4.484 116.128 29.204 151.904 72.464z" />
<glyph unicode="&#xe610;" d="M1024 601.844c0 162.458-131.7 294.156-294.156 294.156-86.362 0-164.030-37.218-217.844-96.49-53.814 59.272-131.482 96.49-217.844 96.49-162.458 0-294.156-131.698-294.156-294.156 0-86.362 37.218-164.030 96.49-217.844h-0.49l320-320c32-32 64-64 96-64s64 32 96 64l319.51 320c59.272 53.814 96.49 131.482 96.49 217.844zM841.468 478.768l-323.978-324.258c-1.678-1.678-3.532-3.532-5.49-5.48-1.96 1.95-3.814 3.802-5.49 5.48l-323.978 324.256c-35.166 31.928-54.532 75.638-54.532 123.078 0 91.618 74.538 166.156 166.156 166.156 47.44 0 91.15-19.366 123.076-54.532l94.768-104.38 94.768 104.378c31.928 35.168 75.636 54.534 123.076 54.534 91.618 0 166.156-74.538 166.156-166.156 0-47.44-19.368-91.15-54.532-123.076z" />
<glyph unicode="&#xe611;" d="M894.399 640.2c-35.237 0-64.067-28.83-64.067-64.067v-256.267c0-35.237 28.83-64.067 64.067-64.067s64.067 28.83 64.067 64.067v256.267c0 35.237-28.83 64.067-64.067 64.067zM125.599 640.2c-35.237 0-64.067-28.83-64.067-64.067v-256.267c0-35.237 28.83-64.067 64.067-64.067s64.067 28.83 64.067 64.067v256.267c0 35.237-28.832 64.067-64.067 64.067zM221.699 223.767c0-53.076 43.024-96.1 96.1-96.1h32.033v-128.133c0-35.237 28.83-64.067 64.067-64.067s64.067 28.83 64.067 64.067v128.133h64.067v-128.133c0-35.237 28.832-64.067 64.067-64.067s64.067 28.83 64.067 64.067v128.133h32.033c53.076 0 96.1 43.024 96.1 96.1v352.367h-576.6v-352.367zM628.719 870.946l40.546 77.887c2.033 3.906 0.5 8.767-3.406 10.801s-8.767 0.5-10.801-3.406l-41.16-79.068c-32.232 12.461-67.264 19.306-103.899 19.306s-71.667-6.845-103.904-19.306l-41.158 79.066c-2.033 3.906-6.893 5.44-10.801 3.406s-5.44-6.893-3.406-10.801l40.542-77.888c-90.724-41.061-156.403-127.717-167.795-230.745h573.037c-11.388 103.031-77.066 189.686-167.793 230.748zM381.864 689.852c-25.653 0-46.448 20.796-46.448 46.448s20.796 46.448 46.448 46.448 46.448-20.796 46.448-46.448c-0.002-25.653-20.796-46.448-46.448-46.448zM638.131 689.852c-25.653 0-46.45 20.796-46.45 46.448s20.799 46.448 46.45 46.448 46.446-20.796 46.446-46.448c0-25.653-20.794-46.448-46.446-46.448z" />
<glyph unicode="&#xe612;" d="M412.23 448.086c-47.708 24.518-94.086 36.958-137.88 36.958-5.956 0-11.952-0.18-17.948-0.708-55.88-4.624-106.922-19.368-139.75-30.828-8.708-3.198-17.634-6.576-26.83-10.306l-89.822-311.394c61.702 22.832 116.292 33.938 166.27 33.938 80.846 0 139.528-30.208 187.992-61.304 22.962 77.918 78.044 266.090 94.482 322.324-11.95 7.284-24.076 14.57-36.514 21.32zM528.348 368.93l-90.446-314.148c26.832-15.372 117.098-64.050 186.212-64.050 55.792 0 118.252 14.296 190.834 43.792l86.356 301.976c-58.632-18.922-114.876-28.52-167.464-28.52-95.95 0-163.114 31.098-205.492 60.95zM292.822 591.21c77.118-0.798 134.152-30.208 181.416-60.502l92.752 317.344c-19.546 11.196-70.806 39.094-107.858 48.6-24.386 5.684-50.020 8.616-77.204 8.616-51.796-0.976-108.388-13.946-172.888-39.8l-88.44-310.596c64.808 24.436 120.644 36.34 172.086 36.34 0.046-0.002 0.136-0.002 0.136-0.002zM1024 761.876c-58.814-22.832-116.208-34.466-171.028-34.466-91.686 0-159.292 31.802-203.094 62.366l-91.95-318.236c61.746-39.708 128.29-59.878 198.122-59.878 56.948 0 115.94 13.68 175.462 40.688l-0.182 2.222 3.734 0.886 88.936 306.418z" />
<glyph unicode="&#xe613;" d="M512-64c282.77 0 512 229.23 512 512s-229.23 512-512 512-512-229.23-512-512 229.23-512 512-512zM512 864c229.75 0 416-186.25 416-416s-186.25-416-416-416-416 186.25-416 416 186.25 416 416 416zM745.74 358.38l22.488-76.776-437.008-128.002-22.488 76.776zM256 640c0 35.346 28.654 64 64 64s64-28.654 64-64c0-35.346-28.654-64-64-64s-64 28.654-64 64zM640 640c0 35.346 28.654 64 64 64s64-28.654 64-64c0-35.346-28.654-64-64-64s-64 28.654-64 64z" />
<glyph unicode="&#xe614;" d="M512 960c-282.77 0-512-229.23-512-512s229.23-512 512-512 512 229.23 512 512-229.23 512-512 512zM768 613.49l-165.488-165.49 165.488-165.488v-90.512h-90.512l-165.488 165.488-165.49-165.488h-90.51v90.512l165.49 165.488-165.49 165.49v90.51h90.51l165.49-165.49 165.488 165.49h90.512v-90.51z" />
<glyph unicode="&#xe615;" d="M512 960c-282.77 0-512-229.23-512-512s229.23-512 512-512 512 229.23 512 512-229.23 512-512 512zM416 128l-212 276 94 98 118-150 370 302 46-46-416-480z" />
<glyph unicode="&#xe616;" d="M854 960h-684c-93.5 0-170-76.5-170-170v-684c0-93.5 76.5-170 170-170h684c93.5 0 170 76.5 170 170v684c0 93.5-76.5 170-170 170zM327.8 512h368.4c6.988-20.058 10.8-41.59 10.8-64 0-107.524-87.476-195-195-195s-195 87.476-195 195c0 22.41 3.812 43.942 10.8 64zM896 511.95v-383.95c0-35.2-28.8-64-64-64h-640c-35.2 0-64 28.8-64 64v384h100.108c-4.642-20.602-7.108-42.016-7.108-64 0-160.458 130.542-291 291-291s291 130.542 291 291c0 21.984-2.464 43.398-7.108 64l100.108-0.050zM896 736c0-17.6-14.4-32-32-32h-64c-17.6 0-32 14.4-32 32v64c0 17.6 14.4 32 32 32h64c17.6 0 32-14.4 32-32v-64z" />
<glyph unicode="&#xe617;" d="M1024 320v-384h-1024v384h128v-256h768v256zM192 256h640v-128h-640zM207.152 394.534l27.698 124.964 624.832-138.496-27.698-124.964zM279.658 651.442l54.092 116.006 580.032-270.464-54.092-116.006zM991.722 598.524l-77.922-101.55-507.746 389.608 56.336 73.418h58.244z" />
<glyph unicode="&#xe618;" d="M612.001 317.969c-17.839-17.988-2.754-50.713-2.754-50.713l134.286-224.225c0 0 22.049-29.564 41.15-29.564 19.19 0 38.146 15.763 38.146 15.763l106.162 151.75c0 0 10.694 19.144 10.94 35.914 0.384 23.851-35.565 30.383-35.565 30.383l-251.342 80.714c-0.002-0.004-24.628 6.532-41.022-10.023zM599.259 430.984c12.862-21.81 48.339-15.455 48.339-15.455l250.775 73.297c0 0 34.174 13.9 39.052 32.431 4.79 18.533-5.636 40.9-5.636 40.9l-119.843 141.163c0 0-10.387 17.85-31.936 19.646-23.758 2.021-38.379-26.733-38.379-26.733l-141.698-222.978c0-0.004-12.525-22.21-0.673-42.271zM480.778 517.917c29.531 7.271 34.217 50.172 34.217 50.172l-2.007 357.027c0 0-4.453 44.042-24.244 55.981-31.040 18.83-40.239 8.999-49.131 7.684l-208.202-77.362c0 0-20.391-6.747-31.011-23.761-15.164-24.105 15.41-59.4 15.41-59.4l216.407-294.974c0 0 21.357-22.086 48.562-15.368zM429.362 373.432c0.745 27.537-33.063 44.077-33.063 44.077l-223.789 113.057c0 0-33.162 13.673-49.261 4.146-12.335-7.288-23.263-20.48-24.332-32.138l-14.575-179.419c0 0-2.184-31.085 5.874-45.234 11.411-20.069 48.958-6.092 48.958-6.092l261.26 57.747c10.149 6.823 27.947 7.436 28.93 43.857zM494.328 276.602c-22.427 11.516-49.263-12.335-49.263-12.335l-174.935-192.584c0 0-21.826-29.448-16.277-47.535 5.229-16.948 13.888-25.371 26.135-31.306l175.682-55.459c0 0 21.3-4.424 37.428 0.25 22.895 6.637 18.678 42.479 18.678 42.479l3.972 260.75c-0.002-0.002-0.896 25.119-21.419 35.741z" />
<glyph unicode="&#xe619;" d="M960 64h-64v128c0 35.344-28.624 64-64 64s-64-28.656-64-64v-128h-512v128c0 35.344-28.624 64-64 64s-64-28.656-64-64v-128h-64c-35.376 0-64-28.656-64-64s28.624-64 64-64h896c35.376 0 64 28.656 64 64s-28.624 64-64 64zM960 960h-896c-35.376 0-64-28.656-64-64v-384c0-70.688 57.312-128 128-128s128 57.312 128 128c0-70.688 57.312-128 128-128s128 57.312 128 128c0-70.688 57.312-128 128-128s128 57.312 128 128c0-70.688 57.312-128 128-128s128 57.312 128 128v384c0 35.344-28.624 64-64 64z" />
<glyph unicode="&#xe61a;" d="M960 768h-256v128c0 35.376-28.656 64-64 64h-256c-35.344 0-64-28.624-64-64v-128h-256c-35.344 0-64-28.624-64-64v-704c0-35.376 28.656-64 64-64h896c35.344 0 64 28.624 64 64v704c0 35.376-28.656 64-64 64zM448 832h128v-64h-128v64zM896 64h-768v256h256v-64h256v64h256v-256zM896 384h-256v64h-256v-64h-256v256h768v-256z" />
<glyph unicode="&#xe61b;" d="M32.35 480l-0.35 312.074 384 52.144v-364.218zM480 853.518l511.872 74.482v-448h-511.872zM991.998 416l-0.126-448-511.872 72.016v375.984zM416 48.164l-383.688 52.594-0.020 315.242h383.708z" />
<glyph unicode="&#xe61c;" d="M258.278 513.458l-146.532 253.802c93.818 117.464 238.234 192.74 400.254 192.74 187.432 0 351.31-100.736 440.532-251h-417.77c-7.504 0.65-15.092 1-22.762 1-121.874 0-224.578-83.644-253.722-196.542zM695.306 635h293.46c22.74-57.93 35.234-121.004 35.234-187 0-280.826-226.1-508.804-506.186-511.926l209.394 362.678c29.48 42.378 46.792 93.826 46.792 149.248 0 73.17-30.164 139.42-78.694 187zM326 448c0 102.56 83.44 186 186 186s186-83.44 186-186c0-102.56-83.44-186-186-186s-186 83.44-186 186zM582.182 195.558l-146.578-253.878c-246.532 36.884-435.604 249.516-435.604 506.32 0 91.218 23.884 176.846 65.696 251.024l209.030-362.054c41.868-89.112 132.476-150.97 237.274-150.97 24.3 0 47.836 3.34 70.182 9.558z" />
<glyph unicode="&#xe61d;" d="M1022.526 625.86l-11.86-76.080c0 0-16.954 140.856-37.732 193.514-31.846 80.688-46.014 80.040-46.108 79.922 21.33-54.204 17.462-83.324 17.462-83.324s-37.792 102.998-137.712 135.768c-110.686 36.282-170.57 26.364-177.488 24.486-1.050 0.008-2.064 0.010-3.030 0.010 0.818-0.062 1.612-0.146 2.426-0.212-0.034-0.020-0.090-0.042-0.082-0.052 0.45-0.548 122.306-21.302 143.916-50.996 0 0-51.76 0-103.272-14.842-2.328-0.666 189.524-23.964 228.746-215.674 0 0-21.030 43.876-47.040 51.328 17.106-52.036 12.714-150.776-3.576-199.85-2.096-6.312-4.24 27.282-36.328 41.75 10.28-73.646-0.616-190.456-51.708-222.632-3.982-2.504 32.030 115.31 7.242 69.762-142.708-218.802-311.404-100.972-387.248-49.11 38.866-8.462 112.654 1.318 145.314 25.612 0.042 0.030 0.078 0.056 0.118 0.086 35.468 24.252 56.472 41.964 75.334 37.772 18.874-4.214 31.438 14.726 16.78 31.53-14.676 16.838-50.314 39.978-98.524 27.366-34-8.904-76.134-46.522-140.448-8.432-49.364 29.25-54.012 53.546-54.45 70.376 1.218 5.966 2.754 11.536 4.576 16.624 5.682 15.87 22.912 20.658 32.494 24.438 16.256-2.792 30.262-7.862 44.968-15.406 0.19 4.894 0.252 11.39-0.018 18.76 1.41 2.802 0.538 11.252-1.722 21.58-1.302 10.308-3.42 20.974-6.752 30.692 0.012 0.002 0.020 0.010 0.030 0.014 0.056 0.018 0.108 0.040 0.156 0.070 0.078 0.044 0.146 0.112 0.208 0.19 0.012 0.020 0.030 0.034 0.044 0.052 0.082 0.124 0.154 0.272 0.198 0.466 1.020 4.618 12.022 13.524 25.718 23.1 12.272 8.58 26.702 17.696 38.068 24.752 10.060 6.248 17.72 10.882 19.346 12.098 0.618 0.466 1.358 1.012 2.164 1.636 0.15 0.116 0.3 0.232 0.454 0.354 0.094 0.074 0.19 0.148 0.286 0.226 5.41 4.308 13.484 12.448 15.178 29.578 0.004 0.042 0.010 0.080 0.012 0.122 0.050 0.504 0.092 1.014 0.13 1.534 0.028 0.362 0.050 0.726 0.072 1.096 0.014 0.284 0.032 0.566 0.044 0.856 0.030 0.674 0.050 1.364 0.060 2.064 0 0.040 0.002 0.076 0.004 0.116 0.022 1.658-0.006 3.386-0.104 5.202-0.054 1.014-0.126 1.93-0.298 2.762-0.008 0.044-0.018 0.092-0.028 0.136-0.018 0.082-0.036 0.164-0.058 0.244-0.036 0.146-0.076 0.292-0.122 0.43-0.006 0.018-0.010 0.032-0.016 0.046-0.052 0.16-0.112 0.314-0.174 0.464-0.004 0.006-0.004 0.010-0.006 0.016-1.754 4.108-8.32 5.658-35.442 6.118-0.026 0.002-0.050 0.002-0.076 0.002v0c-11.066 0.188-25.538 0.194-44.502 0.118-33.25-0.134-51.628 32.504-57.494 45.132 8.040 44.46 31.276 76.142 69.45 97.626 0.722 0.406 0.58 0.742-0.274 0.978 7.464 4.514-90.246 0.124-135.186-57.036-39.888 9.914-74.654 9.246-104.616 2.214-5.754 0.162-12.924 0.88-21.434 2.652-19.924 18.056-48.448 51.402-49.976 91.208 0 0-0.092-0.072-0.252-0.204-0.020 0.382-0.056 0.76-0.072 1.142 0 0-60.716-46.664-51.628-173.882-0.022-2.036-0.064-3.986-0.12-5.874-16.432-22.288-24.586-41.020-25.192-45.156-14.56-29.644-29.334-74.254-41.356-141.98 0 0 8.408 26.666 25.284 56.866-12.412-38.022-22.164-97.156-16.436-185.856 0 0 1.514 19.666 6.874 47.994 4.186-55.010 22.518-122.924 68.858-202.788 88.948-153.32 225.67-230.74 376.792-242.616 26.836-2.212 54.050-2.264 81.424-0.186 2.516 0.178 5.032 0.364 7.55 0.574 30.964 2.174 62.134 6.852 93.238 14.366 425.172 102.798 378.942 616.198 378.942 616.198z" />
<glyph unicode="&#xe61e;" d="M772.608 374.275h243.919c1.88 16.915 2.633 34.202 2.633 51.869 0 82.898-22.252 160.651-61.095 227.608 40.176 106.751 38.741 197.355-15.041 251.503-51.146 50.922-188.367 42.656-343.493-26.038-11.474 0.868-23.062 1.315-34.76 1.315-212.917 0-391.557-146.521-440.931-343.945 66.792 85.513 137.060 147.513 230.928 192.663-8.536-7.998-58.336-57.507-66.712-65.89-247.533-247.46-325.593-570.716-241.599-654.724 63.845-63.833 179.55-53.054 312.455 12.037 61.799-31.474 131.75-49.217 205.858-49.217 199.572 0 368.698 128.46 429.959 307.363h-245.797c-33.825-62.394-99.973-104.862-175.892-104.862-75.917 0-142.067 42.468-175.89 104.862-15.035 28.183-23.678 60.506-23.678 94.711v0.746h399.136zM373.846 494.169c5.638 100.347 89.074 180.404 190.925 180.404s185.289-80.055 190.925-180.404h-381.849zM940.798 854.799c34.643-35.010 33.777-99.421 4.145-179.822-50.774 77.405-124.536 138.4-211.619 173.228 93.109 39.926 168.853 45.214 207.472 6.594zM110.532 24.569c-44.208 44.222-30.88 137.038 26.071 248.859 35.451-99.479 104.528-182.993 193.58-236.793-98.611-44.762-179.32-52.363-219.651-12.068z" />
<glyph unicode="&#xe61f;" d="M509.158-58.136c-277.975 0-503.294 225.322-503.294 503.294s225.322 503.294 503.294 503.294 503.294-225.322 503.294-503.294-225.322-503.294-503.294-503.294zM758.406 466.916c0 21.371-17.344 38.715-38.715 38.715h-154.86v154.86c0 21.371-17.306 38.715-38.715 38.715h-38.715c-21.409 0-38.715-17.344-38.715-38.715v-154.86h-154.86c-21.409 0-38.715-17.344-38.715-38.715v-38.715c0-21.409 17.306-38.715 38.715-38.715h154.86v-154.86c0-21.409 17.306-38.715 38.715-38.715h38.715c21.409 0 38.715 17.306 38.715 38.715v154.86h154.86c21.371 0 38.715 17.306 38.715 38.715v38.715z" />
<glyph unicode="&#xe620;" d="M512-55.294c-277.975 0-503.294 225.322-503.294 503.294s225.322 503.294 503.294 503.294 503.294-225.322 503.294-503.294-225.322-503.294-503.294-503.294zM512 835.15c-213.785 0-387.15-173.325-387.15-387.15 0-213.785 173.365-387.15 387.15-387.15 213.823 0 387.15 173.365 387.15 387.15 0 213.823-173.325 387.15-387.15 387.15zM666.396 409.285h-116.146v-116.146c0-21.409-17.344-38.715-38.715-38.715-21.409 0-38.715 17.306-38.715 38.715v116.146h-116.146c-21.409 0-38.715 17.344-38.715 38.715s17.306 38.715 38.715 38.715h116.146v116.146c0 21.409 17.306 38.715 38.715 38.715 21.371 0 38.715-17.306 38.715-38.715v-116.146h116.146c21.371 0 38.715-17.344 38.715-38.715s-17.344-38.715-38.715-38.715z" />
<glyph unicode="&#xe621;" d="M508.642 947.937c-277.975 0-503.294-225.322-503.294-503.294s225.322-503.294 503.294-503.294c277.975 0 503.294 225.322 503.294 503.294s-225.322 503.294-503.294 503.294zM760.29 430.126c0-21.409-17.344-38.715-38.715-38.715h-425.865c-21.409 0-38.715 17.306-38.715 38.715v38.715c0 21.371 17.306 38.715 38.715 38.715h425.865c21.371 0 38.715-17.344 38.715-38.715v-38.715z" />
<glyph unicode="&#xe622;" d="M512 951.294c-277.975 0-503.294-225.322-503.294-503.294s225.322-503.294 503.294-503.294 503.294 225.322 503.294 503.294-225.322 503.294-503.294 503.294zM512 60.85c-213.785 0-387.15 173.365-387.15 387.15 0 213.823 173.365 387.15 387.15 387.15 213.823 0 387.15-173.325 387.15-387.15 0-213.785-173.325-387.15-387.15-387.15zM656.717 486.715h-309.719c-21.409 0-38.715-17.344-38.715-38.715 0-21.409 17.306-38.715 38.715-38.715h309.719c21.409 0 38.715 17.306 38.715 38.715 0 21.371-17.306 38.715-38.715 38.715z" />
<glyph unicode="&#xe623;" d="M508.642 947.937c-277.975 0-503.294-225.322-503.294-503.294s225.322-503.294 503.294-503.294 503.294 225.322 503.294 503.294-225.322 503.294-503.294 503.294zM508.642 159.119c-32.095 0-58.072 26.017-58.072 58.072s25.978 58.072 58.072 58.072c32.056 0 58.072-26.017 58.072-58.072s-26.017-58.072-58.072-58.072zM566.715 410.767c0-32.056-26.017-58.072-58.072-58.072-32.095 0-58.072 26.017-58.072 58.072v271.006c0 32.095 25.978 58.072 58.072 58.072 32.056 0 58.072-25.978 58.072-58.072v-271.006z" />
<glyph unicode="&#xe624;" d="M509.763 952.083c-279.64 0-506.319-226.681-506.319-506.319s226.681-506.319 506.319-506.319 506.319 226.681 506.319 506.319-226.681 506.319-506.319 506.319zM509.763 51.959c-217.492 0-393.804 176.313-393.804 393.804s176.313 393.804 393.804 393.804 393.804-176.313 393.804-393.804-176.313-393.804-393.804-393.804zM509.763 689.547c-31.054 0-56.257-25.166-56.257-56.257v-189.851c0-31.054 25.204-56.257 56.257-56.257s56.257 25.204 56.257 56.257v189.851c0 31.092-25.204 56.257-56.257 56.257zM509.763 314.495c-31.054 0-56.257-25.204-56.257-56.257s25.204-56.257 56.257-56.257 56.257 25.204 56.257 56.257-25.204 56.257-56.257 56.257z" />
<glyph unicode="&#xe625;" d="M510.046 960c-279.724 0-480.748-202.896-480.748-507.224 0-270.818 195.502-516.776 480.784-516.776 288.078 0 484.62 245.886 484.62 516.776 0 306.76-207.446 507.224-484.656 507.224zM688.358 461.458c-0.068-169.352-9.098-410.482-178.276-410.482v-0.034c-166.784 0-173.432 241.266-173.432 410.308 0 198.38 18.56 388.568 173.432 388.568 154.874 0 178.276-192.584 178.276-388.36z" />
<glyph unicode="&#xe626;" d="M269.792 667.040h670.656c69.056 0 69.056 71.616 2.688 71.616h-463.552c-26.56 0-39.808 39.808-39.808 39.808s-18.592 58.4-55.776 58.4h-345.248c-50.432 0-37.184-58.4-37.184-58.4s77.024-655.040 82.336-694.88 46.496-51.584 46.496-51.584l90.272 579.296c6.656 42.464 35.84 54.4 49.12 55.744zM1077.056 641.856h-786.016c-23.456 0-42.496-19.008-42.496-42.464l-82.304-524.8c0-23.488 19.040-42.496 42.496-42.496h786.016c23.424 0 42.496 19.008 42.496 42.496l82.304 524.8c0 23.456-18.976 42.464-42.496 42.464z" horiz-adv-x="1118" />
<glyph unicode="&#xe627;" d="M181.977 51.986c0-68.314 55.402-123.761 123.761-123.761h412.531c68.314 0 123.761 55.443 123.761 123.761l82.507 660.051h-825.061l82.507-660.051zM635.761 588.277h82.507v-536.288h-82.507v536.288zM470.747 588.277h82.507v-536.288h-82.507v536.288zM305.735 588.277h82.507v-536.288h-82.507v536.288zM903.902 877.047h-268.146c0 0-18.481 82.507-41.253 82.507h-165.012c-22.813 0-41.253-82.507-41.253-82.507h-268.146c-34.199 0-61.879-27.681-61.879-61.879s0-61.879 0-61.879h907.567c0 0 0 27.681 0 61.879s-27.722 61.879-61.879 61.879z" />
<glyph unicode="&#xe628;" d="M941.306 797.286c-99.847 91.665-261.741 91.665-361.587 0l-67.72-62.225-67.78 62.225c-99.847 91.665-261.68 91.665-361.528 0-112.328-103.072-112.328-270.161 0-373.292l429.306-394.015 429.306 394.015c112.328 103.132 112.328 270.22 0 373.292z" />
<glyph unicode="&#xe629;" d="M889.533 285.238c-41.984 29.588-94.369 27.486-124.174-14.821s-238.107-303.589-579.368-195.099c12.827-11.211 26.408-21.881 40.637-31.905 223.879-157.642 533.126-103.963 690.823 119.969 29.749 42.307 14.013 92.322-27.918 121.856zM230.939 318.653c-21.774 46.942-143.845 358.023 120.724 599.309-16.168-5.552-32.121-11.911-47.913-19.24-248.508-115.065-356.621-409.762-241.556-658.271 21.72-46.996 72.92-58.422 119.484-36.864 46.565 21.612 70.979 68.069 49.26 115.065zM556.517 942.646c-51.523 4.635-86.986-33.954-91.621-85.1-4.581-51.146 23.444-95.447 74.967-100.082 51.577-4.635 381.952-54.434 458.644-404.264 3.341 16.761 5.713 33.792 7.329 51.146 24.522 272.707-176.613 513.724-449.32 538.301zM344.441 419.489c-14.175-33.468-16.492-65.375-5.066-71.303 7.868-4.096 20.157 5.282 31.691 22.42 4.581-18.756 15.899-35.624 32.067-49.206-16.923-6.252-28.025-16.492-28.025-28.079 0-19.025 29.965-34.439 66.883-34.439 33.307 0 60.901 12.503 66.021 28.941 1.347 0 6.629 0 7.922 0 5.174-16.438 32.714-28.941 66.075-28.941 36.972 0 66.883 15.414 66.883 34.439 0 11.587-11.048 21.774-28.025 28.079 16.115 13.581 27.486 30.451 32.014 49.206 11.587-17.139 23.821-26.516 31.744-22.42 11.425 5.928 9.162 37.834-5.12 71.303-11.156 26.193-26.301 45.595-37.834 49.906 0.162 1.617 0.269 3.341 0.269 5.066 0 10.133-2.857 19.509-7.707 27.163 0.107 0.593 0.107 1.185 0.107 1.779 0 4.688-1.132 9.055-3.018 12.827-2.911 68.231-47.374 122.503-119.323 122.503s-116.466-54.272-119.377-122.503c-1.886-3.826-3.018-8.192-3.018-12.881 0-0.593 0-1.185 0.054-1.779-4.743-7.599-7.599-16.977-7.599-27.163 0-1.724 0.107-3.396 0.216-5.066-11.48-4.312-26.678-23.66-37.834-49.853z" />
<glyph unicode="&#xe62a;" d="M980.814 185.463h-459.289c13.466 23.217 23.778 48.383 30.603 75.011h428.684c20.74 0 37.505-16.765 37.505-37.505 0-20.703-16.765-37.505-37.505-37.505zM980.814 297.979h-421.408c1.538 12.302 2.588 24.79 2.588 37.505 0 12.751-1.051 25.204-2.588 37.505h421.408c20.74 0 37.505-16.765 37.505-37.505 0-20.703-16.765-37.505-37.505-37.505zM980.814 410.495h-428.684c-6.863 26.629-17.141 51.796-30.603 75.011h459.289c20.74 0 37.505-16.765 37.505-37.505 0-20.703-16.765-37.505-37.505-37.505zM980.814 523.011h-484.868c-24.379 30.417-54.495 55.995-88.85 75.011h573.717c20.74 0 37.505-16.765 37.505-37.505 0-20.703-16.765-37.505-37.505-37.505zM980.814 635.526h-600.084c-20.74 0-37.505 16.802-37.505 37.505 0 20.74 16.765 37.505 37.505 37.505h600.084c20.74 0 37.505-16.765 37.505-37.505 0-20.703-16.765-37.505-37.505-37.505zM980.814 748.040h-600.084c-20.74 0-37.505 16.802-37.505 37.505 0 20.74 16.765 37.505 37.505 37.505h600.084c20.74 0 37.505-16.765 37.505-37.505 0-20.703-16.765-37.505-37.505-37.505zM530.753 335.484c0-144.994-117.579-262.537-262.537-262.537-144.994 0-262.537 117.54-262.537 262.537s117.54 262.537 262.537 262.537c144.957 0 262.537-117.54 262.537-262.537zM361.153 306.943c-3.788 8.964-8.663 16.765-14.777 23.402s-13.052 12.341-20.853 17.103c-7.802 4.763-15.753 9.002-23.892 12.789-8.138 3.751-16.090 7.275-23.892 10.651-7.802 3.338-14.814 6.938-20.966 10.764-6.187 3.826-11.102 8.214-14.777 13.126s-5.514 10.727-5.514 17.478c0 4.501 0.825 8.776 2.437 12.826 1.65 4.012 4.126 7.5 7.5 10.39 3.338 2.85 7.538 5.139 12.526 6.751 4.988 1.65 10.876 2.437 17.591 2.437 8.588 0 16.465-1.014 23.665-3.112 7.164-2.139 13.503-4.426 18.978-7.013 5.477-2.55 10.089-4.914 13.839-7.089s6.488-3.227 8.214-3.227 3.075 0.45 4.089 1.387c0.977 0.938 1.801 2.4 2.325 4.463 0.562 2.025 0.9 4.613 1.162 7.727 0.225 3.15 0.338 7.013 0.338 11.552 0 4.051-0.074 7.463-0.225 10.165-0.15 2.738-0.45 5.025-0.788 6.826-0.412 1.801-0.863 3.264-1.387 4.352-0.601 1.088-1.612 2.4-3.19 3.937-1.575 1.575-4.763 3.525-9.602 5.813-4.837 2.325-10.39 4.426-16.614 6.264-6.264 1.876-12.978 3.338-20.14 4.426-1.463 0.225-2.964 0.15-4.426 0.338v38.78h-36.905v-38.78c-6.789-0.9-13.351-2.25-19.727-4.089-12.415-3.601-23.179-9.002-32.33-16.277s-16.427-16.427-21.791-27.38c-5.4-11.026-8.063-23.778-8.063-38.293 0-12.64 1.876-23.516 5.589-32.555 3.751-9.039 8.626-16.916 14.665-23.553s12.826-12.302 20.479-17.065c7.651-4.8 15.563-9.039 23.665-12.789 8.138-3.751 16.015-7.275 23.665-10.651s14.476-6.976 20.479-10.764c6.039-3.863 10.913-8.214 14.665-13.126 3.751-4.951 5.626-10.839 5.626-17.702 0-5.963-1.088-11.364-3.264-16.239-2.213-4.837-5.363-8.89-9.489-12.188s-9.151-5.813-15.076-7.613c-5.963-1.801-12.64-2.7-20.178-2.7-11.401 0-21.451 1.275-30.117 3.863s-16.127 5.44-22.391 8.588c-6.264 3.112-11.364 5.925-15.339 8.551-3.975 2.55-7.050 3.863-9.263 3.863-1.575 0-2.964-0.45-4.089-1.275-1.199-0.863-2.139-2.325-2.812-4.352-0.713-2.063-1.199-4.687-1.538-7.989s-0.487-7.352-0.487-12.188c0-7.201 0.45-12.714 1.275-16.54 0.863-3.863 2.325-6.789 4.352-8.776 2.025-2.025 5.325-4.315 9.939-6.976s10.351-5.139 17.215-7.538c6.863-2.363 14.814-4.426 23.778-6.15 8.964-1.687 18.716-2.513 29.179-2.513 0.45 0 0.863 0.074 1.35 0.074v-36.117h36.867v40.956c1.763 0.45 3.638 0.675 5.363 1.162 13.577 4.051 25.467 10.127 35.63 18.153s18.19 18.041 24.153 30.080c5.925 12.038 8.852 25.99 8.852 41.93 0.037 12.114-1.838 22.653-5.551 31.653zM495.947 147.96h484.868c20.74 0 37.505-16.765 37.505-37.505 0-20.703-16.765-37.505-37.505-37.505h-573.717c34.356 19.015 64.472 44.594 88.85 75.011z" />
<glyph unicode="&#xe62b;" d="M523.078 228.107c-17.103 16.201-37.056 28.653-58.846 36.417l-45.682 177.887 544.051 152.197 58.282-227.131-497.805-139.369zM349.88 709.824l362.713 101.45 58.321-227.205-362.675-101.45-58.358 227.205zM366.156 267.937c-10.127-2.85-19.541-6.901-28.692-11.364l-159.923 623.148h-60.158c-6.039-13.164-18.678-22.428-33.605-22.428h-75.085c-20.74 0-37.543 17.591-37.543 39.232s16.802 39.194 37.543 39.194h75.085c12.603 0 23.179-6.901 30.004-16.765h115.516v-1.913l1.725 0.524 165.398-644.451c-10.089-0.938-20.178-2.4-30.267-5.176zM375.871 230.057c70.098 19.615 142.144-23.815 160.934-97.063 18.79-73.173-22.804-148.408-92.938-168.025-70.098-19.541-142.144 23.892-160.934 97.063s22.841 148.408 92.938 168.025zM356.105 79.924c8.026-31.355 38.931-49.956 68.972-41.519s47.858 40.655 39.831 72.010c-8.026 31.355-38.931 49.956-68.972 41.594-30.080-8.438-47.895-40.693-39.831-72.085zM1016.196 234.182l-438.211-122.567c-0.788 10.464-2.25 21.041-4.951 31.579-2.663 10.538-6.526 20.441-10.839 29.966l435.923 121.892 18.078-60.87z" />
<glyph unicode="&#xe62c;" d="M944 288h-86.112c-1.44 7.648-3.2 15.136-5.12 22.592l153.568 76.768c15.808 7.904 22.176 27.136 14.304 42.944-7.936 15.808-27.072 22.144-42.944 14.304l-146.496-73.216c-55.872 120.576-177.76 204.608-319.2 204.608-172.224 0-315.68-124.416-345.888-288h-86.112c-44.096 0-80-35.872-80-80 0-15.68 5.76-30.816 16.16-42.528l111.84-125.824v-23.648c0-44.128 35.904-80 80-80h608c44.128 0 80 35.872 80 80v23.648l111.808 125.824c10.432 11.712 16.192 26.848 16.192 42.528 0 44.128-35.872 80-80 80zM825.568 288h-17.984l15.936 8c0.608-2.688 1.472-5.28 2.048-8zM512 544c128.928 0 240-76.8 290.624-186.912l-28.512-14.24c-45.312 99.68-145.472 169.152-262.112 169.152-137.024 0-251.488-95.776-280.64-224h-32.896c29.728 145.888 159.008 256 313.536 256zM658.432 288c-24.736 56.416-80.992 96-146.432 96s-121.664-39.584-146.432-96h-34.368c26.432 74.432 97.376 128 180.8 128 78.88 0 146.816-47.872 176.256-116.064l-29.824-11.936zM512 320c-28.256 0-53.44-12.512-71.040-32h-39.168c22.208 38.048 63.040 64 110.208 64 47.136 0 88-25.952 110.176-64h-39.2c-17.536 19.488-42.72 32-70.976 32zM512 448c-101.28 0-186.944-67.584-214.56-160h-33.024c28.544 110.208 128.544 192 247.584 192 103.872 0 193.376-62.336 233.44-151.488l-28.576-14.272c-34.816 78.624-113.504 133.76-204.864 133.76zM832 64v-48c0-8.832-7.2-16-16-16h-608c-8.832 0-16 7.168-16 16v48l-128 144c0 8.832 7.168 16 16 16h864c8.8 0 16-7.168 16-16l-128-144zM255.264 585.216c-0.224 0.448-0.384 0.864-0.576 1.344-16.608 40.096-0.096 79.424 14.816 114.912 14.112 33.664 26.624 63.488 13.696 92.576-0.064 0.128-0.096 0.256-0.16 0.384-0.032 0.096-0.064 0.192-0.096 0.288-0.032 0.064-0.032 0.128-0.032 0.192-0.64 1.696-1.024 3.488-1.024 5.408 0 8.64 7.008 15.68 15.68 15.68 6.656 0 12.32-4.16 14.592-10.016 17.856-40.672 1.632-80.672-13.504-116.704-14.016-33.344-25.408-64.32-13.408-92.544 0.064-0.224 0.064-0.416 0-0.64 0.352-1.28 0.576-2.624 0.576-4 0-8.864-7.2-16.096-16.064-16.096-6.208 0-11.52 3.52-14.176 8.64-0.032 0-0.064 0-0.064 0-0.096 0.192-0.16 0.384-0.256 0.576zM644.928 589.888c-0.192 0.416-0.352 0.864-0.512 1.28-16.608 40.096-0.128 79.456 14.752 114.944 14.144 33.664 26.624 63.488 13.696 92.576 0 0.128-0.064 0.256-0.128 0.384-0.064 0.096-0.064 0.192-0.128 0.288 0 0.064 0 0.128 0 0.192-0.608 1.696-1.056 3.488-1.056 5.408 0 8.64 7.040 15.68 15.68 15.68 6.688 0 12.32-4.128 14.624-10.016 17.856-40.672 1.632-80.672-13.504-116.704-14.016-33.344-25.376-64.32-13.44-92.544 0.128-0.224 0.128-0.416 0.064-0.64 0.32-1.28 0.576-2.624 0.576-4 0-8.864-7.264-16.096-16.128-16.096-6.176 0-11.488 3.552-14.176 8.672h-0.064c-0.064 0.192-0.128 0.384-0.256 0.576zM480.608 729.216c-0.224 0.448-0.384 0.864-0.608 1.312-16.64 40.096-0.128 79.456 14.784 114.944 14.112 33.664 26.624 63.488 13.696 92.576-0.032 0.128-0.096 0.256-0.128 0.384-0.032 0.096-0.064 0.192-0.096 0.288-0.032 0.064-0.032 0.128-0.032 0.192-0.64 1.696-1.024 3.488-1.024 5.408 0 8.64 7.040 15.68 15.68 15.68 6.688 0 12.32-4.16 14.624-10.048 17.856-40.672 1.632-80.672-13.504-116.704-14.016-33.344-25.408-64.32-13.408-92.544 0.064-0.224 0.064-0.416 0-0.64 0.352-1.28 0.576-2.624 0.576-4 0-8.864-7.2-16.096-16.064-16.096-6.176 0-11.488 3.552-14.176 8.672-0.032 0-0.064 0-0.064 0-0.096 0.192-0.16 0.384-0.256 0.576z" />
<glyph unicode="&#xe62d;" d="M761.805 444.518c-14.029 4.25-23.706 7.219-16.282 26.010 15.923 40.806 17.562 75.981 0.307 101.12-32.41 47.104-120.986 44.595-222.566 1.229 0 0.051-31.898-14.182-23.757 11.622 15.616 51.098 13.261 93.901-11.059 118.63-55.091 56.115-201.626-2.202-327.373-130.048-94.106-95.795-148.736-197.325-148.736-285.133 0-167.936 211.558-280.269 418.56-280.269 271.36 0 451.84 170.701 451.84 298.086 0 77.005-63.693 120.678-120.934 138.752zM431.462 82.944c-165.171-16.333-307.712 58.675-318.464 167.731-10.701 109.005 114.483 210.688 279.654 227.123 165.222 16.435 307.763-58.624 318.464-167.629s-114.483-210.79-279.654-227.226zM1031.27 581.274c-0.102 169.574-137.626 307.046-307.2 307.046-19.814 0-35.84-16.026-35.84-35.84s16.026-35.789 35.84-35.789c130.048 0 235.52-105.472 235.52-235.571 0-19.814 16.026-35.84 35.84-35.84s35.84 16.026 35.84 35.84c0 0 0 0.102 0 0.154zM888.832 586.496c-16.384 79.974-79.462 143.002-159.386 159.386-19.354 3.942-38.349-8.499-42.291-27.904-3.994-19.354 8.499-38.298 27.853-42.291 52.019-10.65 92.979-51.61 103.578-103.578 3.994-19.405 22.938-31.846 42.342-27.904 19.354 3.994 31.898 22.938 27.904 42.291zM346.726 371.046c-66.509-13.363-111.411-69.171-100.25-124.621 11.11-55.45 74.086-89.549 140.646-76.134 66.509 13.363 111.411 69.171 100.25 124.621-11.11 55.398-74.086 89.498-140.646 76.134z" />
<glyph unicode="&#xe62e;" d="M284.885 963.649h-113.556c-46.842 0-89.427-19.135-120.313-50.022s-50.022-73.471-50.022-120.313v-113.556c0-46.842 19.135-89.427 50.022-120.313 30.889-30.889 73.471-50.022 120.313-50.022h113.556c46.842 0 89.427 19.135 120.313 50.022s50.022 73.471 50.022 120.313v113.556c0 46.842-19.135 89.427-50.022 120.313-30.889 30.889-73.471 50.022-120.313 50.022zM852.669 963.649h-113.556c-46.842 0-89.427-19.135-120.313-50.022s-50.022-73.471-50.022-120.313v-113.556c0-46.842 19.135-89.427 50.022-120.313s73.471-50.022 120.313-50.022h113.556c46.842 0 89.427 19.135 120.313 50.022s50.022 73.471 50.022 120.313v113.556c0 46.842-19.135 89.427-50.022 120.313-30.889 30.889-73.471 50.022-120.313 50.022zM284.885 395.864h-113.556c-46.842 0-89.427-19.135-120.313-50.022s-50.022-73.471-50.022-120.313v-113.556c0-46.842 19.135-89.427 50.022-120.313 30.889-30.889 73.471-50.022 120.313-50.022h113.556c46.842 0 89.427 19.135 120.313 50.022 30.889 30.889 50.022 73.471 50.022 120.313v113.556c0 46.842-19.135 89.427-50.022 120.313s-73.471 50.022-120.313 50.022zM852.669 395.864h-113.556c-46.842 0-89.427-19.135-120.313-50.022s-50.022-73.471-50.022-120.313v-113.556c0-46.842 19.135-89.427 50.022-120.313 30.889-30.889 73.471-50.022 120.313-50.022h113.556c46.842 0 89.427 19.135 120.313 50.022 30.889 30.889 50.022 73.471 50.022 120.313v113.556c0 46.842-19.135 89.427-50.022 120.313-30.889 30.889-73.471 50.022-120.313 50.022z" />
<glyph unicode="&#xe62f;" d="M375.467 825.6c0 75.405 61.129 136.533 136.533 136.533s136.533-61.129 136.533-136.533c0-75.405-61.129-136.533-136.533-136.533s-136.533 61.129-136.533 136.533zM665.099 705.632c0 75.405 61.129 136.533 136.533 136.533s136.533-61.129 136.533-136.533c0-75.405-61.129-136.533-136.533-136.533s-136.533 61.129-136.533 136.533zM853.333 416c0 37.702 30.564 68.267 68.267 68.267s68.267-30.564 68.267-68.267c0-37.702-30.564-68.267-68.267-68.267s-68.267 30.564-68.267 68.267zM733.365 126.368c0 37.702 30.564 68.267 68.267 68.267s68.267-30.564 68.267-68.267c0-37.702-30.564-68.267-68.267-68.267s-68.267 30.564-68.267 68.267zM443.735 6.4c0 0 0 0 0 0 0 37.702 30.564 68.267 68.267 68.267s68.267-30.564 68.267-68.267c0 0 0 0 0 0 0-37.702-30.564-68.267-68.267-68.267s-68.267 30.564-68.267 68.267zM154.103 126.368c0 0 0 0 0 0 0 37.702 30.564 68.267 68.267 68.267s68.267-30.564 68.267-68.267c0 0 0 0 0 0 0-37.702-30.564-68.267-68.267-68.267s-68.267 30.564-68.267 68.267zM119.97 705.632c0 0 0 0 0 0 0 56.554 45.846 102.4 102.4 102.4s102.4-45.846 102.4-102.4c0 0 0 0 0 0 0-56.554-45.846-102.4-102.4-102.4s-102.4 45.846-102.4 102.4zM25.6 416c0 42.416 34.384 76.8 76.8 76.8s76.8-34.384 76.8-76.8c0-42.416-34.384-76.8-76.8-76.8s-76.8 34.384-76.8 76.8z" />
<glyph unicode="&#xe630;" d="M813.433 830.952c-166.463 163.746-436.352 163.746-602.816 0-166.463-163.799-166.463-429.318 0-593.065l301.383-296.531 301.433 296.531c166.463 163.746 166.463 429.267 0 593.065zM512 394.281c-35.594 0-69.003 13.853-94.209 39.005-51.954 51.954-51.954 136.463 0 188.417 25.152 25.152 58.613 39.005 94.209 39.005s69.058-13.853 94.209-39.005c51.954-51.954 51.954-136.517 0-188.417-25.152-25.152-58.613-39.005-94.209-39.005z" />
<glyph unicode="&#xe631;" d="M762.035 241.721c-65.259 0-120.166-41.856-140.82-100.013h-159.223c-82.712 0-150.021 67.309-150.021 150.021v151.27c41.907-31.706 93.514-51.257 150.021-51.257h159.223c20.652-58.158 75.61-100.013 140.82-100.013 82.862 0 150.021 67.159 150.021 150.021s-67.159 150.021-150.021 150.021c-65.259 0-120.166-41.856-140.82-100.013h-159.223c-82.712 0-150.021 67.309-150.021 150.021v9.202c58.158 20.652 100.013 75.61 100.013 140.82 0 82.862-67.159 150.021-150.021 150.021s-150.021-67.159-150.021-150.021c0-65.209 41.856-120.166 100.013-140.82v-359.251c0-137.869 112.166-250.035 250.035-250.035h159.223c20.652-58.158 75.61-100.013 140.82-100.013 82.862 0 150.021 67.159 150.021 150.021s-67.159 150.021-150.021 150.021zM762.035 491.756c27.605 0 50.008-22.453 50.008-50.008s-22.404-50.008-50.008-50.008-50.008 22.453-50.008 50.008 22.404 50.008 50.008 50.008zM261.965 841.804c27.605 0 50.008-22.453 50.008-50.008s-22.404-50.008-50.008-50.008-50.008 22.453-50.008 50.008 22.404 50.008 50.008 50.008zM762.035 41.694c-27.605 0-50.008 22.453-50.008 50.008s22.404 50.008 50.008 50.008 50.008-22.453 50.008-50.008-22.404-50.008-50.008-50.008z" />
<glyph unicode="&#xe632;" d="M959.050 362.787h-319.71c-29.467 0-53.286 23.819-53.286 53.286s23.819 53.286 53.286 53.286h319.71c29.467 0 53.286-23.819 53.286-53.286s-23.819-53.286-53.286-53.286zM586.053 629.214c0-73.588-29.839-140.194-78.010-188.362-48.223-48.223-114.829-78.062-188.417-78.062s-140.194 29.839-188.417 78.062c-48.17 48.17-78.010 114.777-78.010 188.362s29.839 140.194 78.010 188.362c48.223 48.223 114.829 78.062 188.417 78.062s140.194-29.839 188.417-78.062c48.17-48.17 78.010-114.777 78.010-188.362zM319.628 309.501c-199.819 0-319.71-106.569-319.71-213.142 0-53.286 119.893-106.569 319.71-106.569 187.457 0 319.71 53.286 319.71 106.569s-125.433 213.142-319.71 213.142z" />
<glyph unicode="&#xe633;" d="M320.145 362.787c73.588 0 140.194 29.839 188.417 78.062 48.17 48.17 78.010 114.777 78.010 188.362s-29.839 140.194-78.010 188.362c-48.223 48.223-114.829 78.062-188.417 78.062s-140.194-29.839-188.417-78.062c-48.17-48.17-78.010-114.777-78.010-188.362s29.839-140.194 78.010-188.362c48.223-48.223 114.829-78.062 188.417-78.062zM320.145-10.209c187.457 0 319.71 53.286 319.71 106.569 0 106.569-125.433 213.142-319.71 213.142-199.819 0-319.71-106.569-319.71-213.142 0-53.286 119.893-106.569 319.71-106.569zM959.566 469.358h-106.569v106.569c0 29.467-23.819 53.286-53.286 53.286s-53.286-23.819-53.286-53.286v-106.569h-106.569c-29.467 0-53.286-23.819-53.286-53.286s23.819-53.286 53.286-53.286h106.569v-106.569c0-29.467 23.819-53.286 53.286-53.286s53.286 23.819 53.286 53.286v106.569h106.569c29.467 0 53.286 23.819 53.286 53.286s-23.819 53.286-53.286 53.286z" />
<glyph unicode="&#xe634;" d="M512 401.893c60.824 0 115.877 24.664 155.736 64.523 39.815 39.815 64.479 94.869 64.479 155.692s-24.664 115.877-64.479 155.692c-39.859 39.859-94.913 64.523-155.736 64.523s-115.877-24.664-155.736-64.523c-39.815-39.815-64.479-94.869-64.479-155.692s24.664-115.877 64.479-155.692c39.859-39.859 94.913-64.523 155.736-64.523zM864.344 357.85c30.39 0 57.917 12.288 77.868 32.195s32.239 47.434 32.239 77.912c0 30.39-12.288 57.917-32.239 77.868s-47.479 32.239-77.868 32.239c-30.434 0-57.96-12.288-77.912-32.239-19.907-19.951-32.195-47.479-32.195-77.868 0-30.434 12.288-57.96 32.195-77.912s47.479-32.195 77.912-32.195zM864.344 331.865c-58.621 0-102.709-17.882-128.474-42.633-49.108 40.387-126.756 68.619-223.871 68.619-99.802 0-175.951-28.54-224.267-68.884-26.249 24.885-70.821 42.898-128.077 42.898-96.366 0-154.15-48.007-154.15-96.102 0-24.003 57.785-48.095 154.15-48.095 26.602 0 50.473 2.246 71.482 5.858-0.441-4.008-1.762-7.928-1.762-11.892 0-44.043 105.967-88.086 282.624-88.086 165.69 0 282.624 44.043 282.624 88.086 0 3.744-0.484 7.487-0.881 11.231 20.392-3.215 43.822-5.197 70.601-5.197 90.332 0 154.15 24.092 154.15 48.095 0 48.095-60.471 96.102-154.15 96.102zM159.656 357.85c30.39 0 57.917 12.288 77.868 32.239s32.239 47.479 32.239 77.868c0 30.345-12.288 57.873-32.239 77.868-19.951 19.907-47.479 32.239-77.868 32.239-30.434 0-57.96-12.332-77.912-32.239-19.907-19.996-32.195-47.522-32.195-77.868 0-30.39 12.288-57.917 32.195-77.868 19.951-19.951 47.479-32.239 77.912-32.239z" />
<glyph unicode="&#xe635;" d="M739.141 932.503c-24.292 24.419-63.765 24.542-88.31 0.251-6.497-6.497-10.989-14.176-14.053-22.171-51.96-108.416-109.169-169.559-181.363-205.653-81.001-39.97-173.991-67.759-323.879-67.759-8.122 0-16.236-1.562-23.858-4.748-15.3-6.37-27.418-18.551-33.788-33.788-6.307-15.238-6.307-32.477 0-47.712 3.183-7.679 7.745-14.613 13.551-20.358l202.53-202.53-283.347-377.834 377.834 283.347 202.469-202.469c5.745-5.873 12.676-10.365 20.358-13.551 7.619-3.183 15.741-4.87 23.858-4.87s16.236 1.686 23.858 4.87c15.3 6.37 27.48 18.424 33.788 33.788 3.183 7.557 4.808 15.741 4.808 23.794 0 149.886 27.727 242.878 67.638 322.628 36.037 72.194 97.178 129.401 205.653 181.363 8.057 3.062 15.675 7.557 22.106 14.053 24.292 24.542 24.17 64.013-0.251 88.31l-249.623 251.059z" />
<glyph unicode="&#xe636;" d="M271.812 595.765c0-53.58 12.148-104.23 32.866-150.126l-289.054-289.054c0 0 0-49.19 0-109.795s65.581-109.795 146.391-109.795h146.391v146.391h146.391v146.391c0 0 170.475 0 182.994 0 202.166 0 365.983 163.813 365.983 365.983s-163.813 365.983-365.983 365.983-365.983-163.813-365.983-365.983zM637.795 449.371c-80.807 0-146.391 65.581-146.391 146.391 0 80.885 65.581 146.538 146.391 146.538 80.885 0 146.391-65.581 146.391-146.538 0-80.807-65.511-146.391-146.391-146.391z" />
<glyph unicode="&#xe637;" d="M448 165.49l-205.254 237.254 58.508 58.51 146.746-114.744 274.744 242.744 58.512-58.508zM831.772 832c0.078-0.066 0.162-0.15 0.228-0.23v-767.542c-0.066-0.078-0.15-0.162-0.228-0.228h-639.544c-0.080 0.066-0.162 0.15-0.228 0.228v767.544c0.066 0.080 0.15 0.162 0.23 0.228h-128.23v-768c0-70.4 57.6-128 128-128h640c70.4 0 128 57.6 128 128v768h-128.228zM640 832v64c0 35.346-28.654 64-64 64h-128c-35.346 0-64-28.654-64-64v-64h-128v-128h512v128h-128zM576 832h-128v64h128v-64z" />
<glyph unicode="&#xe638;" d="M896 448h-160l-224-224-224 224h-160l-128-256v-64h1024v64l-128 256zM0 64h1024v-64h-1024v64zM576 640v256h-128v-256h-224l288-288 288 288h-224z" />
<glyph unicode="&#xe639;" d="M982.886 469.017l-450.12 450.12c-18.015 18.015-43.035 29.274-70.808 29.274h-350.289c-55.296 0-100.082-44.787-100.082-100.082v-350.289c0-27.773 11.259-52.793 29.524-70.808l450.371-450.371c18.015-18.015 43.035-29.274 70.558-29.274 27.773 0 52.793 11.259 70.808 29.274l350.289 350.289c18.015 18.265 29.274 43.286 29.274 70.808 0 27.773-11.259 52.793-29.524 71.059zM186.733 698.205c-41.535 0-75.063 33.528-75.063 75.063s33.528 75.063 75.063 75.063 75.063-33.528 75.063-75.063-33.528-75.063-75.063-75.063zM775.716 284.365l-213.676-213.676-213.676 213.676c-22.519 22.769-36.531 54.044-36.531 88.572 0 69.056 56.046 125.103 125.103 125.103 34.529 0 66.054-14.012 88.572-36.78l36.531-36.531 36.531 36.531c22.769 22.769 54.044 36.78 88.572 36.78 69.056 0 125.103-56.046 125.103-125.103 0-34.529-14.012-65.803-36.531-88.572z" />
<glyph unicode="&#xe63a;" d="M330.145 465.049c0 37.734-30.461 68.196-68.196 68.196s-68.196-30.461-68.196-68.196 30.461-68.196 68.196-68.196 68.196 30.461 68.196 68.196zM648.391 692.369c0 37.734-30.461 68.196-68.196 68.196h-136.391c-37.734 0-68.196-30.461-68.196-68.196s30.461-68.196 68.196-68.196h136.391c37.734 0 68.196 30.461 68.196 68.196zM352.877 305.926c-37.734 0-68.196-30.461-68.196-68.196s30.461-68.196 68.196-68.196 68.196 30.461 68.196 68.196-30.461 68.196-68.196 68.196zM512 942.419c-275.738 0-500.101-224.363-500.101-500.101s224.363-500.101 500.101-500.101 500.101 224.363 500.101 500.101-224.363 500.101-500.101 500.101zM512 33.144c-225.728 0-409.174 183.673-409.174 409.174s183.447 409.174 409.174 409.174 409.174-183.673 409.174-409.174-183.447-409.174-409.174-409.174zM762.051 533.245c-37.734 0-68.196-30.461-68.196-68.196s30.461-68.196 68.196-68.196 68.196 30.461 68.196 68.196-30.461 68.196-68.196 68.196zM671.123 305.926c-37.734 0-68.196-30.461-68.196-68.196s30.461-68.196 68.196-68.196 68.196 30.461 68.196 68.196-30.461 68.196-68.196 68.196z" />
<glyph unicode="&#xe63b;" d="M966.228 905.838h-908.455v-113.556h908.455v113.556zM1023.005 338.054v113.556l-56.779 283.893h-908.455l-56.779-283.893v-113.556h56.779v-340.669h567.784v340.669h227.115v-340.669h113.556v340.669h56.779zM512 110.94h-340.669v227.115h340.669v-227.115z" />
<glyph unicode="&#xe63c;" d="M652.791 880.972h-422.373c-38.951 0-72.274-23.7-86.351-57.254l-141.496-330.858c-4.224-10.794-6.806-22.293-6.806-34.26v-89.873l0.47-0.47-0.47-3.52c0-51.859 42.004-93.86 93.86-93.86h296.365l-44.819-214.472c-0.938-4.694-1.642-9.621-1.642-14.784 0-19.477 7.978-37.075 20.649-49.747l49.981-49.511 309.036 309.036c16.894 17.129 27.454 40.596 27.454 66.406v469.303c0 51.859-42.004 93.86-93.86 93.86zM840.512 880.972v-563.164h187.721v563.164h-187.721z" />
<glyph unicode="&#xe63d;" d="M-4.233 18.163h187.721v563.164h-187.721v-563.164zM1028.233 534.396c0 51.859-42.004 93.86-93.86 93.86h-296.365l44.819 214.472c0.938 4.694 1.642 9.621 1.642 14.784 0 19.477-7.978 37.075-20.649 49.747l-49.981 49.511-309.036-309.036c-16.894-17.129-27.454-40.596-27.454-66.406v-469.303c0-51.859 42.004-93.86 93.86-93.86h422.373c38.951 0 72.274 23.7 86.351 57.254l141.496 330.858c4.224 10.794 6.806 22.293 6.806 34.26v89.873l-0.47 0.47 0.47 3.52z" />
<glyph unicode="&#xe63e;" d="M381.983 523.011l238.283 412.807c-34.754 7.75-71.010 12.251-108.265 12.251-120.017 0-229.781-42.255-316.043-112.766l183.274-317.294 2.751 5.001zM989.065 598.021c-46.006 146.271-157.522 263.037-299.791 317.045l-183.026-317.045h482.818zM1002.067 548.013h-374.552l14.501-25.002 238.283-412.557c81.512 89.014 131.769 207.278 131.769 337.546 0 34.255-3.5 67.758-10.001 100.013zM338.725 448l-195.028 337.546c-81.512-89.014-131.769-207.278-131.769-337.546 0-34.255 3.5-67.758 10.001-100.013h374.552l-57.759 100.013zM34.935 297.979c46.006-146.271 157.522-263.037 299.791-317.045l183.026 317.045h-482.818zM598.511 297.979l-195.028-337.796c35.006-7.75 71.26-12.251 108.515-12.251 120.017 0 229.781 42.255 316.043 112.766l-183.274 317.294-46.257-80.011z" />
<glyph unicode="&#xe63f;" d="M512 963.649c-282.188 0-511.005-228.819-511.005-511.005s228.819-511.005 511.005-511.005c47.125 0 85.169 38.043 85.169 85.169 0 22.142-8.235 42.014-22.142 57.061-13.343 15.048-21.292 34.637-21.292 56.493 0 47.125 38.043 85.169 85.169 85.169h100.215c156.708 0 283.893 127.181 283.893 283.893 0 250.959-228.819 454.228-511.005 454.228zM199.719 452.644c-47.125 0-85.169 38.043-85.169 85.169s38.043 85.169 85.169 85.169 85.169-38.043 85.169-85.169-38.043-85.169-85.169-85.169zM370.053 679.758c-47.125 0-85.169 38.043-85.169 85.169s38.043 85.169 85.169 85.169 85.169-38.043 85.169-85.169-38.043-85.169-85.169-85.169zM653.947 679.758c-47.125 0-85.169 38.043-85.169 85.169s38.043 85.169 85.169 85.169 85.169-38.043 85.169-85.169-38.043-85.169-85.169-85.169zM824.281 452.644c-47.125 0-85.169 38.043-85.169 85.169s38.043 85.169 85.169 85.169 85.169-38.043 85.169-85.169-38.043-85.169-85.169-85.169z" />
<glyph unicode="&#xe640;" d="M69.235 84.938l65.158-26.887v437.21l-117.477-283.64c-20.347-49.172 3.147-106.092 52.319-126.681zM1013.896 264.666l-240.284 579.636c-15.018 36.333-50.381 58.859-87.441 59.587-12.839 0.242-25.918-2.18-38.755-7.266l-356.792-147.754c-36.333-15.018-58.618-50.14-59.587-87.199-0.242-13.081 1.939-26.159 7.266-38.999l240.041-579.636c15.261-36.819 50.867-59.101 88.653-59.587 12.595 0 25.192 2.18 37.545 7.266l356.792 147.754c49.172 20.347 72.907 77.026 52.561 126.197zM328.167 613.222c-26.645 0-48.445 21.799-48.445 48.445s21.799 48.445 48.445 48.445 48.445-21.799 48.445-48.445-21.799-48.445-48.445-48.445zM231.279 80.335c0-53.288 43.601-96.888 96.888-96.888h70.487l-167.374 404.025v-307.137z" />
<glyph unicode="&#xe641;" d="M812.040 656.058c0 165.774-134.269 300.040-300.040 300.040s-300.040-134.269-300.040-300.040c0-225.031 300.040-550.076 300.040-550.076s300.040 325.045 300.040 550.076zM411.987 656.058c0 55.259 44.758 100.013 100.013 100.013s100.013-44.758 100.013-100.013-44.758-100.013-100.013-100.013-100.013 44.758-100.013 100.013zM161.952 55.974v-100.013h700.096v100.013h-700.096z" />
<glyph unicode="&#xe642;" d="M671.855 474.643v319.71l-159.855 159.855-159.855-159.855v-106.569h-319.71v-745.992h959.133v532.852h-319.71zM245.573 48.361h-106.569v106.569h106.569v-106.569zM245.573 261.501h-106.569v106.569h106.569v-106.569zM245.573 474.643h-106.569v106.569h106.569v-106.569zM565.286 48.361h-106.569v106.569h106.569v-106.569zM565.286 261.501h-106.569v106.569h106.569v-106.569zM565.286 474.643h-106.569v106.569h106.569v-106.569zM565.286 687.783h-106.569v106.569h106.569v-106.569zM884.996 48.361h-106.569v106.569h106.569v-106.569zM884.996 261.501h-106.569v106.569h106.569v-106.569z" />
<glyph unicode="&#xe643;" d="M449.427 591.667v-323.566c0-34.556 28.018-62.573 62.573-62.573s62.573 28.018 62.573 62.573v323.566c72.904 25.777 125.148 95.298 125.148 177.023 0 103.669-84.053 187.721-187.721 187.721s-187.721-84.053-187.721-187.721c0-81.725 52.244-151.25 125.148-177.023zM950.016 580.969h-125.148c-34.556 0-62.573-28.018-62.573-62.573s28.018-62.573 62.573-62.573h31.287c17.294 0 31.287-13.993 31.287-31.287v-312.869c0-17.294-13.993-31.287-31.287-31.287h-688.312c-17.294 0-31.287 13.993-31.287 31.287v312.869c0 17.294 13.993 31.287 31.287 31.287h31.287c34.556 0 62.573 28.018 62.573 62.573s-28.018 62.573-62.573 62.573h-125.148c-34.556 0-62.573-28.018-62.573-62.573v-500.59c0-34.556 28.018-62.573 62.573-62.573h876.033c34.556 0 62.573 28.018 62.573 62.573v500.59c0 34.556-28.018 62.573-62.573 62.573z" />
<glyph unicode="&#xe644;" d="M793.581 277.13c-38.746 0-74.226-13.122-102.722-35.028l-293.916 176.326c1.408 9.011 2.422 18.246 2.422 27.651 0 9.461-1.015 18.641-2.422 27.651l293.916 176.326c28.497-21.907 63.975-35.028 102.722-35.028 93.259 0 168.95 75.634 168.95 168.95s-75.689 168.95-168.95 168.95-168.95-75.634-168.95-168.95c0-9.405 1.015-18.641 2.478-27.651l-293.916-176.383c-28.497 21.963-64.031 35.085-102.777 35.085-93.316 0-168.95-75.634-168.95-168.95 0-93.259 75.634-168.95 168.95-168.95 38.746 0 74.281 13.122 102.777 35.028l293.916-176.326c-1.464-9.011-2.478-18.19-2.478-27.651 0-93.259 75.689-168.95 168.95-168.95s168.95 75.689 168.95 168.95-75.689 168.95-168.95 168.95z" />
<glyph unicode="&#xe645;" d="M512 952.125c-279.797 0-507.375-227.685-507.375-507.428 0-279.797 227.579-507.428 507.375-507.428s507.375 227.631 507.375 507.428c0 279.744-227.579 507.428-507.375 507.428zM944.749 444.697c0-98.991-33.613-190.318-89.636-263.254-15.855 12.42-32.663 45.876-16.807 80.546 15.961 34.882 20.136 115.64 16.489 147.033-3.488 31.394-19.819 107.077-64.215 107.817-44.236 0.687-74.626 15.274-100.947 67.809-54.596 109.244 102.479 130.279 47.883 190.794-15.274 16.965-94.235-69.976-105.809 45.876-0.793 8.297 7.135 20.717 17.705 33.561 171.451-57.608 295.335-219.651 295.335-410.181zM452.542 873.112c-10.306-20.084-37.63-28.328-54.278-43.497-36.098-32.663-51.636-28.17-71.138-59.563-19.555-31.394-82.765-76.582-82.765-99.308 0-22.674 31.923-49.522 47.883-44.29 15.961 5.285 58.031 4.968 82.765-3.7 24.788-8.773 206.914-17.494 148.83-171.451-18.393-48.94-98.938-40.696-120.396-121.77-3.224-11.892-14.323-62.682-15.115-79.277-1.269-25.686 18.181-122.51-6.606-122.51-24.893 0-91.803 86.624-91.803 102.321s-17.388 70.769-17.388 117.859-80.175 46.35-80.175 108.98c0 56.551 43.497 84.668 33.72 111.676-9.619 26.954-85.989 27.906-117.806 31.182 55.599 144.39 186.514 251.574 344.276 273.348zM375.907 34.040c26.003 13.689 28.645 31.447 52.218 32.398 26.954 1.162 48.888 10.518 79.225 17.177 27.007 5.866 75.208 33.244 117.754 36.732 35.78 2.959 106.496-1.85 125.523-36.415-68.495-45.452-150.522-71.983-238.625-71.983-47.566 0-93.283 7.822-136.093 22.092z" />
<glyph unicode="&#xe646;" d="M505.289 947.505c-277.147-3.71-498.865-231.428-495.155-508.631 3.71-277.038 231.428-498.811 508.575-495.1s498.865 231.428 495.155 508.631c-3.655 277.093-231.428 498.811-508.575 495.1zM560.936 780.234c51.010 0 66.068-29.569 66.068-63.45 0-42.281-33.88-81.398-91.655-81.398-48.337 0-71.305 24.332-69.941 64.485 0 33.88 28.37 80.362 95.528 80.362zM430.111 131.939c-34.861 0-60.393 21.169-36.007 114.241l39.991 164.979c6.929 26.46 8.074 37.044 0 37.044-10.42 0-55.702-18.276-82.489-36.28l-17.404 28.534c84.835 70.815 182.382 112.386 224.172 112.386 34.861 0 40.644-41.245 23.241-104.694l-45.827-173.49c-8.074-30.66-4.583-41.245 3.492-41.245 10.42 0 44.736 12.657 78.453 39.172l19.694-26.46c-82.435-82.435-172.398-114.187-207.315-114.187z" />
<glyph unicode="&#xe647;" d="M505.345 947.505c-277.202-3.71-498.919-231.428-495.209-508.631 3.71-277.038 231.428-498.811 508.631-495.1 277.093 3.71 498.865 231.428 495.1 508.631-3.655 277.093-231.373 498.811-508.521 495.1zM503.871 140.123h-2.782c-42.663 1.255-72.778 32.734-71.578 74.796 1.199 41.299 32.024 71.36 73.324 71.36l2.509-0.055c43.864-1.31 73.652-32.461 72.342-75.724-1.199-41.409-31.588-70.378-73.816-70.378zM683.416 496.485c-10.093-14.239-32.134-31.97-59.958-53.63l-30.66-21.169c-16.804-13.093-26.951-25.369-30.716-37.426-3.054-9.602-4.473-12.057-4.746-31.424l-0.055-4.964h-116.915l0.327 9.929c1.418 40.699 2.455 64.596 19.314 84.398 26.46 31.043 84.835 68.633 87.291 70.214 8.348 6.329 15.385 13.475 20.677 21.113 12.276 16.913 17.676 30.279 17.676 43.318 0 18.168-5.402 34.971-16.040 49.919-10.258 14.458-29.733 21.768-57.884 21.768-27.933 0-47.028-8.893-58.485-27.060-11.838-18.714-17.731-38.298-17.731-58.375v-5.019h-120.57l0.219 5.238c3.109 73.869 29.461 127.008 78.343 158.050 30.66 19.805 68.85 29.788 113.369 29.788 58.322 0 107.641-14.184 146.375-42.117 39.281-28.315 59.194-70.759 59.194-126.080 0-30.988-9.766-60.066-29.024-86.472z" />
<glyph unicode="&#xe648;" d="M976.384 614.4h-928.768c-47.104 0-49.51-22.938-46.899-50.995l42.24-461.21c2.56-28.058 9.216-50.995 56.269-50.995h825.6c48.026 0 53.709 22.938 56.269 50.995l42.24 461.21c2.509 28.058 0.205 50.995-46.95 50.995zM942.285 727.040c-5.632 22.528-33.536 40.96-61.901 40.96h-348.877c-28.416 0-68.045 16.23-88.166 36.147l-30.515 30.106c-20.070 19.917-59.75 36.147-88.115 36.147h-166.707c-28.365 0-54.17-22.886-57.293-50.893l-14.95-133.427h866.867l-10.342 40.96z" />
<glyph unicode="&#xe649;" d="M880.27 725.471c0 52.852-52.587 52.852-52.587 52.852h-631.365c0 0-52.587 0-52.587-52.852v-52.852h736.54v52.852zM722.402 884.026h-420.858c0 0-52.587 0-52.587-52.852h526.085c0 52.852-52.64 52.852-52.64 52.852zM985.445 672.619c-31.13 31.288-31.13 31.288-31.13 31.288v-84.139h-884.683v84.139c0 0 0 0-31.13-31.288s-53.433-39.691-40.855-105.756c12.42-65.8 72.83-426.777 81.761-475.612 9.883-53.592 64.32-52.852 64.32-52.852h736.54c0 0 54.437-0.74 64.32 52.852 8.985 48.835 69.341 409.812 81.815 475.612 12.525 66.065-9.778 74.468-40.96 105.756zM722.402 387.221c0 0 0-52.852-52.64-52.852h-315.577c-52.587 0-52.587 52.852-52.587 52.852v105.703h73.675v-84.563h273.402v84.563h73.781v-105.703z" />
<glyph unicode="&#xe64a;" d="M0 64h1024v-64h-1024zM1024 192v-64h-1024v64l128 256h256v-128h256v128h256zM224 640l288 288 288-288h-224v-256h-128v256z" />
<glyph unicode="&#xe64b;" d="M889.16 900.821h-754.322c-69.145 0-125.72-56.574-125.72-125.72v-440.021c0-69.145 56.574-125.72 125.72-125.72h251.44l251.44-188.581v188.581h251.44c69.145 0 125.72 56.574 125.72 125.72v440.021c0 69.145-56.574 125.72-125.72 125.72z" />
<glyph unicode="&#xe64c;" d="M945.67 183.987v125.261c0 75.67-50.083 188.22-188.165 188.22h-109.113c-77.033 0-84.181 37.753-84.563 57.284v152.54c46.537 20.131 79.107 66.395 79.107 120.243 0 72.287-58.594 130.936-130.936 130.936s-130.936-58.648-130.936-130.936c0-53.847 32.57-100.111 79.107-120.243v-152.54c0-14.131-4.092-57.284-84.563-57.284h-109.113c-138.082 0-188.22-112.55-188.22-188.22v-125.261c-46.537-20.077-79.107-66.395-79.107-120.243 0-72.287 58.594-130.936 130.936-130.936 72.287 0 130.936 58.648 130.936 130.936 0 53.847-32.57 100.165-79.107 120.243v125.261c0 14.131 4.092 84.563 84.563 84.563h109.113c33.116 0 61.049 5.019 84.563 13.531v-223.355c-46.537-20.077-79.107-66.395-79.107-120.243 0-72.287 58.594-130.936 130.936-130.936s130.936 58.648 130.936 130.936c0 53.847-32.626 100.165-79.161 120.243v223.355c23.514-8.511 51.447-13.531 84.563-13.531h109.113c77.033 0 84.181-65.031 84.617-84.563v-125.261c-46.537-20.077-79.107-66.395-79.107-120.243 0-72.287 58.594-130.936 130.936-130.936s130.936 58.648 130.936 130.936c0 53.847-32.57 100.165-79.161 120.243zM205.665 63.744c0-41.735-33.825-75.56-75.56-75.56s-75.56 33.825-75.56 75.56 33.825 75.56 75.56 75.56 75.56-33.825 75.56-75.56zM436.44 827.534c0 41.735 33.88 75.56 75.56 75.56s75.507-33.825 75.507-75.56-33.825-75.56-75.507-75.56c-41.682 0-75.56 33.825-75.56 75.56zM587.56 63.744c0-41.735-33.88-75.56-75.507-75.56-41.735 0-75.56 33.825-75.56 75.56s33.825 75.56 75.507 75.56c41.682 0 75.56-33.825 75.56-75.56zM893.895-11.817c-41.682 0-75.56 33.825-75.56 75.56s33.88 75.56 75.56 75.56 75.56-33.825 75.56-75.56-33.88-75.56-75.56-75.56z" />
<glyph unicode="&#xe64d;" d="M862.294 503.231c132.399 39.14 210.005 179.424 154.251 182.24-143.1 7.265-265.476 76.59-347.924 128.402-8.729 5.743-17.628 11.207-26.807 16.331v-322.41c0-106.607-64.482-191.531-137.581-226.843-106.156-51.247-224.421-19.092-264.181 71.859s14.079 206.23 120.235 257.422c58.739 28.328 121.081 31.086 171.877 12.558v250.101c-32.1 7.659-65.497 11.938-99.905 11.938-239.514 0-433.692-196.655-433.692-439.268s194.179-439.268 433.692-439.268c239.571 0 433.692 196.655 433.692 439.268 0 19.542-1.238 38.803-3.66 57.668z" />
<glyph unicode="&#xe64e;" d="M283.299 891.803c-168.579-86.69-273.219-257.561-273.219-447.199 0-34.589 4.364-69.668 12.057-104.64l433.67 394.88c-46.265 42.062-167.815 152.649-172.507 156.959zM718.934 902.496c-65.523 29.788-135.136 45.063-206.987 45.063-50.956 0-101.203-8.456-150.030-24.059l356.964-324.666v303.661zM795.257 858.25v-579.282h190.13c18.714 53.574 28.478 109.277 28.478 165.633 0.055 165.415-83.090 320.355-218.607 413.647zM46.197 258.619c36.771-92.419 101.367-171.907 183.747-228.264v395.534l-111.514-101.53c-38.081-34.644-69.887-63.613-72.233-65.74zM306.322-13.945c51.010-23.022 104.367-37.262 159.305-42.336h92.147c164.706 15.385 312.445 112.877 392.753 258.871h-644.203v-216.535z" />
<glyph unicode="&#xe650;" d="M452.183 941.779c-222.959-26.496-399.635-203.231-426.13-426.13h426.13v426.13zM574.075 940.912v-489.13c0-32.049-25.976-58.025-58.083-58.025h-489.13c31.297-239.214 235.627-423.932 483.288-423.932 269.354 0 487.8 218.33 487.8 487.8 0 247.659-184.718 451.991-423.873 483.288z" />
<glyph unicode="&#xe651;" d="M744.742 913.484h232.742v-930.969h-232.742zM395.629 680.742h232.742v-698.227h-232.742zM46.516 448h232.742v-465.484h-232.742z" />
<glyph unicode="&#xf011;" d="M978.988 411.429q0-96-37.538-183.385t-100.923-150.769-150.769-100.923-183.385-37.538-183.385 37.538-150.769 100.923-100.923 150.769-37.538 183.385q0 112 49.538 211.077t139.385 166.154q26.461 19.693 58.769 15.385t51.384-30.769q19.693-25.846 15.077-58.154t-30.462-52q-60.308-45.539-93.23-111.385t-32.923-140.308q0-64 24.923-122.154t67.384-100.616 100.616-67.384 122.154-24.923 122.154 24.923 100.616 67.384 67.384 100.616 24.923 122.154q0 74.462-32.923 140.308t-93.23 111.385q-25.846 19.693-30.462 52t15.077 58.154q19.077 26.461 51.692 30.769t58.462-15.385q89.847-67.077 139.385-166.154t49.538-211.077zM585.142 884.044v-393.846q0-32-23.384-55.385t-55.385-23.384-55.385 23.384-23.384 55.385v393.846q0 32 23.384 55.385t55.385 23.384 55.385-23.384 23.384-55.385z" />
<glyph unicode="&#xf013;" d="M679.866 448q0 69.506-49.18 118.687t-118.687 49.18-118.687-49.18-49.18-118.687 49.18-118.687 118.687-49.18 118.687 49.18 49.18 118.687zM1015.597 519.475v-145.571q0-7.868-5.246-15.082t-13.115-8.524l-121.309-18.361q-12.458-35.41-25.573-59.671 22.95-32.787 70.163-90.49 6.558-7.868 6.558-16.393t-5.902-15.082q-17.705-24.261-64.917-70.818t-61.638-46.556q-7.868 0-17.049 5.902l-90.49 70.818q-28.852-15.082-59.671-24.917-10.492-89.179-19.016-121.965-4.59-18.361-23.606-18.361h-145.571q-9.18 0-16.065 5.574t-7.54 14.099l-18.361 120.654q-32.131 10.492-59.016 24.261l-92.457-70.163q-6.558-5.902-16.393-5.902-9.18 0-16.393 7.213-82.621 74.753-108.195 110.163-4.59 6.558-4.59 15.082 0 7.868 5.246 15.082 9.835 13.77 33.442 43.606t35.41 46.23q-17.705 32.787-26.885 64.917l-119.998 17.705q-8.524 1.312-13.77 8.196t-5.246 15.411v145.571q0 7.868 5.246 15.082t12.458 8.524l121.965 18.361q9.18 30.164 25.573 60.326-26.229 37.375-70.163 90.49-6.558 7.868-6.558 15.737 0 6.558 5.902 15.082 17.049 23.606 64.589 70.491t61.966 46.884q8.524 0 17.049-6.558l90.49-70.163q28.852 15.082 59.671 24.917 10.492 89.179 19.016 121.965 4.59 18.361 23.606 18.361h145.571q9.18 0 16.065-5.574t7.54-14.099l18.361-120.654q32.131-10.492 59.016-24.261l93.114 70.163q5.902 5.902 15.737 5.902 8.524 0 16.393-6.558 84.588-78.031 108.195-111.475 4.59-5.246 4.59-14.426 0-7.868-5.246-15.082-9.835-13.77-33.442-43.606t-35.41-46.23q17.049-32.787 26.885-64.261l119.998-18.361q8.524-1.312 13.77-8.196t5.246-15.411z" />
<glyph unicode="&#xf044;" d="M507.429 258.286l66.286 66.286-86.857 86.857-66.286-66.286v-32h54.857v-54.857h32zM758.857 669.714q-9.143 9.143-18.857-0.571l-200-200q-9.714-9.714-0.571-18.857t18.857 0.571l200 200q9.714 9.714 0.571 18.857zM804.571 330.286v-108.571q0-68-48.286-116.286t-116.286-48.286h-475.429q-68 0-116.286 48.286t-48.286 116.286v475.429q0 68 48.286 116.286t116.286 48.286h475.429q36 0 66.857-14.286 8.571-4 10.286-13.143 1.714-9.714-5.143-16.571l-28-28q-8-8-18.286-4.571-13.143 3.429-25.714 3.429h-475.429q-37.714 0-64.571-26.857t-26.857-64.571v-475.429q0-37.714 26.857-64.571t64.571-26.857h475.429q37.714 0 64.571 26.857t26.857 64.571v72q0 7.429 5.143 12.571l36.571 36.571q8.571 8.571 20 4t11.429-16.571zM749.714 752l164.571-164.571-384-384h-164.571v164.571zM1003.429 676.571l-52.571-52.571-164.571 164.571 52.571 52.571q16 16 38.857 16t38.857-16l86.857-86.857q16-16 16-38.857t-16-38.857z" />
</font>
</defs>
</svg>
